<svg xmlns="http://www.w3.org/2000/svg" viewBox="0 0 708.16 360.9"><defs><style>.cls-1{fill:#231f20;}.cls-2{fill:#ff514d;}.cls-3{fill:#3ca7ef;}</style></defs><title>Asset 2</title><g id="Layer_2" data-name="Layer 2"><g id="Layer_1-2" data-name="Layer 1"><path class="cls-1" d="M132.43,82.3c.81,3.76.83,3.76,0,5.6A36.1,36.1,0,0,1,132.43,82.3Z"/><path class="cls-1" d="M89.16,61.57c.6,1.84.54,3.55,0,6.24C88.75,65.09,88.54,63.39,89.16,61.57Z"/><path class="cls-1" d="M61.58,65.48a21.64,21.64,0,0,1-.33-5.83C62.66,61.25,62.19,63.43,61.58,65.48Z"/><path class="cls-1" d="M126.2,79.76a1.39,1.39,0,0,1,.25-1,2.89,2.89,0,0,1,0,.81c0,1.5-.08,4.52,0,4.53C125.8,84,125.94,81.28,126.2,79.76Z"/><path class="cls-1" d="M63.35,81c-1.89-2-1.43-9.16,0-11.6C63.07,73.24,64.13,77.19,63.35,81Z"/><path class="cls-1" d="M59.62,74.16a5.63,5.63,0,0,1,.14-4C60.2,73,60.22,73,59.62,74.16Z"/><path class="cls-1" d="M120.69,88.79a205.33,205.33,0,0,1-2.54-48.37.55.55,0,0,1,1.09,0c.42,16.14,1.08,32.16,2.23,48.27C121.5,89.12,120.77,89.24,120.69,88.79Z"/><path class="cls-1" d="M161.81,34.86c.28,6,.71,12.21.45,18.21,0,.46-.76.63-.85.12a70.43,70.43,0,0,1-.48-18.32A.45.45,0,0,1,161.81,34.86Z"/><path class="cls-1" d="M313.13,2.27c-12.8.37-25.72,2.54-38.42,4.05-13.38,1.59-26.51,4.58-39.85,6.28-14.66,1.87-29.23,4.86-43.73,8.13-33.81,6.45-70.9,14.11-101,20.49-2.69.41-5.37.83-8,1.3C69.93,44.66,58,47.47,45.9,50,32.8,52.73,20.47,56.16,8.53,62.37-2.95,68.34.34,84.14.74,94.87c.24,6.27-.19,12.79.57,19a105.8,105.8,0,0,1,1.14,18.93c-.65,12.8,1.35,25.65,2.69,38.37,1.39,13.23,5.52,25,10.53,37.29a149.82,149.82,0,0,0,9,18.38c2.69,4.63,3.82,9,8.23,12.41,4.23,3.24,7.63,6.62,12.33,9.2,5,2.76,9.13,7,13.89,9.88,1.54.93,3.5,1.23,5.21,2.18,2.79,1.55,5.55,3.14,8.38,4.62,5.48,2.87,11.09,5.44,16.57,8.3,4.6,2.4,9.34,4.57,14.14,6.57,5.56,2.32,11.37,3.46,17,5.44,11.79,4.14,25.17,5,33.79-5.58,8.19-10.09,10.45-23.74,18.17-34.08,2.29-3.06,4.7-7.82,9.12-7.31,5.27.61,10.11,5.37,13.09,9.38,3.76,5.07,5.61,11.42,7.91,17.22,2.61,6.59,5.2,13.14,8.13,19.59,5.19,11.41,10.75,22.24,20.46,30.51,9.21,7.84,19.68,10.36,30.74,14.22,25.42,8.86,52.61,13.61,78.89,19.33,12.37,2.69,24.64,5.18,36.89,8.36,12.42,3.22,26.31,3.22,39.13,3.82h0c7.62.35,13.65-6.48,19.16-10.82,5.88-4.64,10.44-8.64,18.26-7.54s16.16,4,24,3.46c7.25-.48,13.79-6.22,18.81-11a56,56,0,0,1,9.89-7.66c3.18-2,6.61-3.61,9.66-5.75,12.52-8.8,24.72-17.78,36-28.23,5.71-5.29,12.24-9.13,15.29-16.58,2.79-6.81,6-13.43,8.77-20.23,6-14.82,13.6-29.11,21-43.21,3.58-6.79,7.78-13.19,11.68-19.8,4.11-7,8.81-13.8,14.66-19.43q7.84-7.55,16.22-14.49c4.26-3.51,11.11-12,17.37-8.87,3.53,1.76,5.57,5.77,7.87,8.77a54.4,54.4,0,0,0,7.94,8.55c5,4.16,13.17,8.13,19.65,6,6.66-2.14,11.26-8.57,13-15,1.07-3.86,2.36-8.22,1.93-12.24s-1.45-8.22-2-12.34c-2.3-17.89-7.31-34.62-12.44-51.85-2.31-7.77-6.7-11-14.75-12.57-7.83-1.49-17.07.14-24.55,2.67-15.71,5.31-29.7,15-43.86,23.33-13.51,8-26.58,16.38-40,24.47-7.3,4.4-14.4,9.05-21.55,13.7-5.69,3.7-11.56,6.49-17,10.59-12.94,9.83-26,18.24-40.82,25-15,6.81-32.12,7.27-48.23,5.93-15-1.25-30.09-1.2-45-4.22-16.5-3.35-33.29-5.17-49.75-8.74-16.09-3.5-32.42-6.32-48.4-10.59-7.1-1.9-14.36-3.24-21.44-5.24-4.24-1.2-8.54-1.64-12.83-2.58-3-.64-7.79-2.93-10.64-1.7,8.15,4.26,17.15,4.69,25.79,7.17,8.84,2.53,18.15,4.05,27.1,6.3,17.4,4.37,35.1,8.14,52.84,11.13,9,1.52,17.58,3.67,26.5,5.18,9.35,1.59,18.64,3.65,28,5.08,9.66,1.47,19.42,2.53,29.15,3.29,4.85.38,9.64.84,14.51.85,1.21,0,10,.31,10.38-.69-1,2.66-15.68,2-18.66,2.29a106.29,106.29,0,0,1-23.09-.26c-15.26-1.82-30.1-5.43-45.17-8.34-25.73-5-51.26-10.85-77-15.47-26.18-4.7-52-11.12-78.16-15.7-12.66-2.22-25.1-5.65-37.62-8.52-11.46-2.63-23-4.94-34.21-8.38-5.63-1.72-11.42-3-17.08-4.63s-10.94-3.94-16.52-5.38c-6.36-1.64-12.77-3.18-19.14-4.9-3-.82-6.07-1.72-9.15-2.26-1.74-.3-6.64-.3-7.42-2.42,5.73-1.93,12.31.54,18,2.31s11.71,3.55,17.58,5c12.73,3.23,25.48,6.43,38.36,9.26,14.47,3.19,29,6.27,43.45,9.41,6.6,1.43,13.14,2.84,19.81,3.72,6.09.81,13.32,4.37,19.46,3.07-5.33-2.76-10.79-2.87-16.47-3.88-6.34-1.13-12.81-2.87-19.09-4.36-6.45-1.53-12.92-2.93-19.35-4.49-3.07-.74-6.14-1.5-9.22-2.18-2.62-.58-8.79-.57-10.82-2.25-6.09-5,21.2-17.67,24.74-19.19,22.46-9.63,46-16.35,69.18-23.88,25-8.1,51.84-14.43,78-16.67,11.86-1,25.92-5,32.77,7.32C378,80.6,386,90.5,396.2,96.77s25.71,8,35.9.25c9.21-7,2.31-25.46-.85-34.07-4.26-11.6-11.13-21.81-17.55-32.3-5.65-9.23-14.72-18.45-25-22.34-12-4.55-24.48-6.86-37.27-8S325.95,1.89,313.13,2.27ZM670.77,72.64c0-.36,3.38-.53,3.65,0ZM494.1,171.82H495c-.16,1.4-9.14,5.81-10.19,4.83C483.44,175.38,492.89,172.12,494.1,171.82Zm9.75-5a2.34,2.34,0,0,1,1.06.14c-1.91,1.76-6.9,5.45-9.74,4.84C496.14,169.73,501.77,167.88,503.85,166.79Zm48.55-29c.29,1.54-.32,2.15-1.82,2.82-.14,0-3.35,1.28-2.12.3S551.08,138.78,552.4,137.75Zm41-26.47c-2.07,2.6-6,4.33-8.74,6.18l-11.09,7.41c-3.12,2.08-6.36,4-9.44,6.17-.89.62-7.14,6.27-8.2,5.79-2.37-1.08,5.16-5.46,5.71-5.84,3-2.1,6-4.21,9.08-6.28,6.89-4.69,13.91-9.13,21.06-13.41A1.26,1.26,0,0,1,593.36,111.28ZM656.07,77c-1.72.6-6.33,3.16-7.8,1.93,3.66-2.76,12.81-6.55,17.7-5.5a3.39,3.39,0,0,1,.5.11C663,74.52,659.52,75.78,656.07,77ZM501.53,323.37c-1.77-2.91-2-7.7-2.28-10.65-.07-.7-.13-1.41-.18-2.11-.06,1.18-.12,2.36-.22,3.54-.16-5.92-1-12.32-.23-18.33,0-2.44,0-4.87-.13-7.3-.39-11.48-.76-22.94-.9-34.43-.11-9.16-.11-18.31-.14-27.47-1.78-13-.47-26.83-2.14-39.47a13.31,13.31,0,0,1,1.23-8.41l.3-1a1.69,1.69,0,0,1,.17.21c1.49-2.27,3.82-4.13,6.88-6l.27-.15c.39-1.39,1.05-2.2,2.13-2,.19,0,.33.25.43.58,2.11-1.09,4.26-2.09,6.3-3.29.25-.14.48-.31.72-.46.24-1.3.85-2.06,2.14-1.47,0,0,0,.06.06.09.85-.57,1.69-1.15,2.53-1.74a1.78,1.78,0,0,1,.13-.13,2.15,2.15,0,0,1,.46-.27c2-1.43,4-2.87,6.14-4.18,3.7-2.3,7.47-4.5,11.24-6.69a3.93,3.93,0,0,1,2.65-1.56h0l2.73-1.61c0-.06.07-.13.11-.2l.08.08,2.45-1.48a2,2,0,0,1,.79-1.08c.69-.41,1.16-.47,1.48-.32l2.28-1.44a.61.61,0,0,1,.35-.28h.1c.79-.51,1.57-1,2.35-1.54l.25-.18a1.34,1.34,0,0,1,.34-.62,1,1,0,0,1,1-.29q1.47-1,2.92-2.07a4.34,4.34,0,0,1,1.87-2,4.74,4.74,0,0,1,2-.84c4.3-3.23,8.54-6.53,12.94-9.64a4,4,0,0,1,1.29-.92Q576,125.1,577.8,124l1.76-1.12a2.66,2.66,0,0,1,2.19-1.38l4.91-3a2.49,2.49,0,0,1,.8-.49l4.52-2.8a7.94,7.94,0,0,1,.75-.72,14.27,14.27,0,0,1,1.92-1.35,4.81,4.81,0,0,1,.68-.68c6.06-4.91,12.93-9,19.54-13.14a3.43,3.43,0,0,1,1.23-.46,60.4,60.4,0,0,1,8.4-4.6A135.38,135.38,0,0,1,636.93,87c11.56-5.66,23.87-10.87,36.83-11.8,5.31-.38,11.2-1,14.31,3.84,2.63,4.12,4.14,8.87,5.8,13.44,3.85,10.56,5.73,22.22,7.7,33.25,1.8,10.08,4,22.65,1.34,32.73-2.84,10.67-10.77,14.5-20.82,10.27-4.79-2-8.71-6.29-11.54-10.54s-4.82-10.92-9-14c-7.94-5.93-20.34,8.9-25.27,13.57-8.12,7.7-16.7,15-23.12,24.31-1.29,1.87-4.79,9.79-7.29,10.35-2.12,3.82-4.11,7.72-6.2,11.55-5.74,10.5-11,21.25-16.19,32-.86,1.77-1.74,3.52-2.61,5.28a5.19,5.19,0,0,1-.95,1.92q-1.63,3.25-3.27,6.49c-1,3.73-3.24,7.68-4.84,11.06a22.81,22.81,0,0,1-1.51,2.56c-.26.73-.54,1.45-.79,2.18a100.33,100.33,0,0,1-3.68,10,9.1,9.1,0,0,1-.46,1,28.88,28.88,0,0,1-2.36,4c-.24.34-.51.66-.77,1A4.15,4.15,0,0,1,561,283c-3.22,3.65-7.18,6.75-10.83,9.86-1.14,1-2.27,2-3.41,3-1.58,1.52-3.92,3.56-6.21,5.37-1.36,1.18-2.71,2.37-4.09,3.53a205.33,205.33,0,0,1-29.64,20.75A3.65,3.65,0,0,1,505,326C503.06,326.8,501.57,325.22,501.53,323.37Zm-20.52,10c-.11-3.93-.21-7.85-.33-11.8-.23-7.4.18-14.69-.4-22-.56-7-.3-13.92-.84-20.93-.5-6.46-.9-12.73-1.1-19.18-.47-15.4-1.17-31.21,0-46.34.59-7.43-.59-14.73,0-22.15.18-2.1,0-7.85,2.56-8.55,2.34-.65,2,5.38,2.26,7.21.14-2.23-.45-6.49.89-8.46s5.42-2.73,7.23-1.46c2.69,1.89,2.27,7.8,2.55,10.55.37,3.7.21,7.48.27,11.19.23,16.36.82,32.75,1,49.09.11,8.39,1,16.9,1,25.39,0,7.9-.1,15.76.29,23.63a219.13,219.13,0,0,1,0,23.76c-.27,4.53-.18,8.08-3.93,10.86A47.17,47.17,0,0,1,482.33,340C480.33,340.84,481,334.46,481,333.41ZM160.14,262.06a23.62,23.62,0,0,1,1.76-3.75c.13,2.35-.44,3.55-1.67,5.53C159.39,265.19,160.06,262.36,160.14,262.06ZM4.59,76C6,76.46,6.2,77.79,7.1,78.71a15.62,15.62,0,0,0,3.29,2.21c2.28,1.37,4.45,2.92,6.73,4.29,5.28,3.16,11.26,5.21,17,7.39,12.22,4.67,24.2,9.93,36.67,13.94,12.7,4.08,26,6.06,38.87,9.54,12.55,3.4,25,7.07,37.5,10.68,23,6.63,45.67,12.91,69.08,17.84s46.94,9.74,70.5,13.9c23,4.07,45.74,11.27,68.92,14.36,23.37,3.11,46.31,9,69.62,12.38a119.1,119.1,0,0,0,18.66,1.05c5.64-.06,11.69-1,17.29-.53,2.84.25,4.44-.39,7.23-.78,2.18-.31,3.05-.35,4.22,1.74,2.25,4,2,11.33,2.27,15.84a171.89,171.89,0,0,1,.29,18.69c-.29,5.8.27,11.41.32,17.21.1,12.28.72,24.59.66,36.86-.06,11.83.84,23.62,1.1,35.45.15,6.62.26,13.24.38,19.85,0,2.12,1,7.87,0,9.77s-1.53,1.52-3.66,1.29c-9.94-1.08-22.55-7.49-32.23-2.94-4.65,2.18-9.42,6.22-13,9.91s-7.28,8.11-12.69,8.29h0l-.65,0,.64,0c-12.76.4-25.33-2.4-37.72-5.28-11.69-2.72-23.52-5.19-35.27-7.67-11.16-2.36-22.3-5.25-33.64-6.66a213.64,213.64,0,0,1-36.92-7.68c-10.15-3.17-20.76-5.82-30.21-10.78a57,57,0,0,1-22.15-21.68c-5.57-9.46-9.86-19.95-14-30.11-3.42-8.46-6-22.89-14.46-27.39-8.77-4.67-16.28-7.32-23.57,1.37-6.52,7.78-10.2,17.56-13.91,26.89-3.35,8.43-7.21,17.49-17.76,17.68-5.52.1-11.36-1.85-16.56-3.54-4.35-1.41-8.5-1.83-12.52-4.09-3.62-2-7.54-3.27-11.31-5-4.9-2.21-9.7-4.73-14.55-7.07a262.16,262.16,0,0,1-28.32-15.82c-8.75-5.65-17.35-11.88-23.38-20.49-6.13-8.76-10.27-18.7-14.19-28.6-2-5.18-4.39-10.37-5.64-15.82-1.13-4.94-1.41-10.15-2.17-15.17-1.6-10.58-2-21.24-2.53-31.94-.25-4.62.05-9.42.18-14,.14-5.06-.56-10-.76-15C4.57,103.4,4.55,97.68,4.42,92q-.1-4.48-.21-9C4.18,81.38,3.39,77.43,4.59,76ZM8,72.4a18.05,18.05,0,0,0,3.74,3.7,78.88,78.88,0,0,0,10.52,6.2,155.7,155.7,0,0,0,22.44,9c6.39,2.06,12.31,4.43,18.47,6.81,3.91,1.51,8.13,2.2,12.06,3.66,3,1.1,10.25,2.2,10.55,5.26-2.72,1-6.55-1.26-9.27-2.05-3.1-.9-5.93-1.19-8.88-2.5C60.15,99.1,52.07,96.89,44.35,94,40,92.42-.25,77.42,5.3,70.33,6.42,68.91,7.18,71.31,8,72.4Zm80.51,31.17-1.6-.54C87,93.6,85,83.66,84,74.28c-.71-6.55-1.13-13.23-2-19.8a6.69,6.69,0,0,1,.44-3.37c1.34.67.35,2.43,1.42,3.23.57,7.57,1.87,15.18,3,22.62,1.32,9,2.36,18.37,4.45,27.29A17.27,17.27,0,0,1,88.55,103.57ZM19.18,63.46c.64.26,1.1,3.55,1.3,4.31.68,2.5,2.71,6.44,1.15,9-.86-4.44-2.12-8.77-3.28-13.14C18.17,62.92,19,63.4,19.18,63.46Zm6.42-1.73c2.24.78,3,8.68,3.58,10.83.39,1.48,3.35,9.33,2.27,10.35s-2.14,0-2.8-1.19c-.88-1.55-.17-2.36-.18-4.06,0-3.38-1.56-7.17-2.36-10.43-.67-.13-.84.91-1.49.53a.38.38,0,0,1-.13-.08c-.26-.67-.29-.87-.23-.85C24,65,24.87,63.37,25.6,61.74Zm4.51-2.12c2.55,2.29,3,8.16,3.69,11.49.46,2.25.71,4.53,1.12,6.78.28,1.57,1.54,4.17,1.07,5.75-1.25,4.26-3.18-6.38-3.43-7.67-.91-4.79-1.77-9.6-3-14.34h0A2.09,2.09,0,0,1,30.11,59.62Zm5-1.27c3,.44,1.09,4,1,6a20.81,20.81,0,0,0,1.26,7.31c1.28-.13.33-1.83,1.53-2.1,0,1.11-.79,4.65-.45,6-.14-.11-.21-.11.15.37,2,.71,1.23,1.16,1.69,3.61C40.51,81.06,43,85.9,41,87c-3.38,1.87-4.84-11.52-5.13-13-.61-3.2-1.29-6.39-2-9.57C33.38,62.27,31.35,57.81,35.06,58.35Zm-5.16-2c-.7.81-5.27,3-6.58,2.21a.47.47,0,0,1-.14-.08C24.73,57.67,28.16,55.42,29.9,56.31ZM46,63c.55-2.48-1.62-5-.31-7.38,2.42,1.49.47,6.84,2.83,8.44-.15,2.23.16,7.05,2.2,8.47a114.06,114.06,0,0,0,1.89,13.11c.13.76,1,5,.11,5.42-1.36.63-1.68-1-2.36-1.65-1.18,1.71-4.13.75-5.49-.39C42.92,87.45,43,84,42.51,81.61c-1.07-4.76-1.85-9.54-2.87-14.33-.59-2.76-2.84-9-.27-10.84C44.37,52.92,44.51,60.47,46,63Zm8.64,4.6c1.19,6.73,2.17,13.46,3.67,20.16.48,2.12,2.65,7-1.17,5.89-2.88-.82-1.76-3.53-2.19-5.73-.51-2.57-1.38-5.44-2.06-8.07-.61-2.37-.76-5.23-2.07-7.26.12-1.17.09-1.37,0-1.22-.06-2.38-.77-5.86-2.21-7.24,0-1.58-2-9.54-.05-10.05h0C54.33,52.56,53.92,63.84,54.59,67.62Zm8.64-16.39c.75.69,1,2.83,1.24,3.77.73,2.74.27,6.57,2,8.88.52.4,0,6.32,0,7.12-.08,2.13-.82,4.53-.54,6.63.61,4.63,2.48,9.11,3,13.88.15,1.39,1.5,5.07-.28,5.84-1.58.68-2.2-2.92-2.34-3.45C65.54,91,66.24,82.56,63.45,81a29.11,29.11,0,0,0,.2,9.19c.33,1.42,2.13,5.61-.43,5.44C59.8,95.46,58,80.77,57.31,77.8c-1.6-6.69-2.27-13.92-3.16-20.74A10.48,10.48,0,0,1,54.35,53l4.28-.85c2.12,1.74.38,5.87,2.53,7.45.31-2.69-.29-5.3-.06-7.94Zm4.49-.89c3,1.16,5.08,19.82,5.09,22.22a70.86,70.86,0,0,0,.65,7.36c.21,1.92-.39,3.74,0,5.62.66,3.32,3.23,8.34,2.63,11.8-.39,2.25-2.38,2.36-4,.63-1.42-1.53-1.32-4.92-1.6-6.76-.8-5.28-1.7-10.56-2.33-15.86-.51-4.28-1.17-8.63-1.73-12.71-.33-2.4-2-10.52.36-12.14Zm5.19-1c.94.82,1.6,3.24,1.65,4.28.12,3,.15,5.9,2.4,8.12-.36,2.46-.79,8.51,1.13,10.54a148,148,0,0,0,.58,14.83c.26,2.6.61,5.17.95,7.76s.54,3.23-1.84,4.47c-1-7.34-2.21-14.6-3.22-22-.65-4.76-1.69-9-1.88-13.7a32.25,32.25,0,0,0-.61-4.81c-.35-2-2.08-6.52-1.22-8.36a4.53,4.53,0,0,1,.53-.88ZM79.66,48c0,9.5,1.53,19.18,2.63,28.59,1,8.52,1.36,17.72,3.49,26.07-2.49-.91-3.62-1.8-4.24-5.54-.69-4.16-1.57-8.28-2.1-12.45-.35-2.72,1.21-10.53-1.23-12.3,0-2.51,1.56-9-1-10.55l-.11-.07c-.09-2.24-1.42-10.15.49-13.33Zm2-.4c.19.24-.22.46-.64.68l-.1-.53ZM376,9c9.38,1.83,19,5.15,25.8,12.19,6.63,6.84,11.25,16,15.84,24.22,5.11,9.18,9.82,18.07,13.26,28,1.34,3.87,3.37,9,3,13.16-.12,1.51-1.49,5.93-2.49,7.13s-4,2.14-5.45,2.88c-8.79,4.46-18.15,2.92-26.58-1.41-8.67-4.46-13.5-11.55-18.94-19.28-2.63-3.74-5.08-7.8-8.07-11.27-2.6-3-5.51-4.18-9.35-5.1-5.08-1.22-9.69-.12-14.76.36-4.7.44-9.37.25-14,1.19C314.91,65,295.46,67.67,276.39,73c-9.48,2.64-18.84,5.39-28.24,8.39q-6.06,1.93-12.11,3.89a140.87,140.87,0,0,1-25.34,9.16c-2.32.71-4.53,1.3-6.06,1.84-5.19,1.83-10.62,3.53-15.57,6s-9.35,4.73-14,7.45a49.62,49.62,0,0,0-7.38,4.85c-1.94,1.66-2.43,3.28-3.72,5.22-1.73,2.59-3.21,1.54-6.29.87s-5.94-1.41-8.92-2.06c-5.94-1.31-11.72-3-17.61-4.52-2.81-.71-5.66-1.25-8.49-1.86-1-.22-2.44-.18-3.33-.82-.59-.42-.74-1.68-1.21-1.88-1.1-.47-.72,1-1.51,1.05a12.21,12.21,0,0,1-3.55-.74,4.67,4.67,0,0,1-1.59-1.42c-.09-1.79-.33-3.58-.45-5.37a42,42,0,0,0-.47-5.61.48.48,0,0,0-.91,0,26.16,26.16,0,0,0,.53,10,2.36,2.36,0,0,1-1.85,1.09c-1.61.3-5.48-1.7-7-2.35-2.74-1.18-5.59-1.27-8.44-1.61-1-10-2.95-19.94-4.33-29.86C87.24,65.45,86.51,56,84.4,47l.69-.14c1,.44,1.1,3.78,2,4.29.9-2.14-.18-3.57,1.14-4.94l4.33-.89c-1.14,6.25-.59,13-.33,19.3a126.27,126.27,0,0,0,2,19.68c.11.53.94.39.93-.13-.16-6.91-.83-13.81-1.14-20.72-.27-6.05.18-12.3-.69-18.3,2.5-.52,4.78-1,6.7-1.43a137.11,137.11,0,0,0,3.6,46.38c.1.37.72.29.67-.1a360.15,360.15,0,0,1-3-46.57c1.64-.37,2.94-.68,3.79-.91.4-.11,1.28-.3,2.57-.57a206.81,206.81,0,0,0,2.48,46.15c.09.51.92.37.89-.13-.78-15.45-1.74-30.8-2.14-46.27,3.77-.77,10-2,17.92-3.48a.48.48,0,0,0,0,.09,335.3,335.3,0,0,0,2.92,70.92c.06.42.75.3.73-.11-1.46-23.65-2.25-47.14-2.65-70.83a.5.5,0,0,0-.07-.25l1.81-.34a5.54,5.54,0,0,1,.63.37,4,4,0,0,1,.38-.56l2.44-.46a.48.48,0,0,0-.27.42C131.8,58.28,132,79.42,135,100c.07.5.84.53.82,0-1.12-20.87-2.32-41.61-2-62.53a.44.44,0,0,0-.42-.47C177.63,28.68,260,13.6,279.82,10c2.39-.2,4.77-.39,7.16-.61,10-.92,20-2.15,30-2.63C336.81,5.8,356.39,5.16,376,9Z"/><path class="cls-1" d="M50.2,121.3c-7-.8-13.06,1.48-19.51,3.91l0,.05c-3.13,1.3-5.11,6-6.18,8.76a31.92,31.92,0,0,0-2.07,9.48,8.55,8.55,0,0,0-.17,1.44c-.05,2.16.42,4.66.54,6.84.45,8.16,1.82,16.75,3,24.85,1.27,8.92,2.9,17,6.78,25.23,1.78,3.76,3.06,8.51,5.54,11.84s6.83,5.3,10.25,7.5c7.78,5,16.19,8.53,24.58,12.39,7.77,3.57,16.25,7.34,24.52,9.51,7.25,1.9,18.25,5.61,23.26-2.24l.17-.28a.4.4,0,0,0,.47-.23l0-.12h0c.3-.7.56-1.41.83-2.12a21.8,21.8,0,0,0,1.42-4,73.36,73.36,0,0,0,2.47-10c2.36-9.73,3.58-19.73,1.71-29.52-.27-2.2-.59-4.39-1-6.57-.81-4.31-1.62-9.28-3.27-13.6-2.64-10.6-7-20.73-15.28-28.21-10.78-9.76-23.53-13.76-36.88-18.82C64.45,124.73,57.6,122.13,50.2,121.3Zm-4.09,2.05a48.23,48.23,0,0,1,17.71,3.27,2,2,0,0,1-.06.37c-4.08-.22-8.41-1.76-12.42-2.43a21.89,21.89,0,0,0-4.59-.25,26.49,26.49,0,0,0-8.5.56A19.54,19.54,0,0,1,46.12,123.35ZM62.31,226.78c-2.56-1.18-5-2.48-7.45-3.85-1.76-1.51-4-2.6-5.71-4.14A39,39,0,0,1,43,211.93c-2.75-3.9-4.49-8.19-6.44-12.44-.63-2.82-1.33-5.63-1.85-8.44-1-5.43-2-10.86-3-16.28s-1.18-10.78-2-16.18-1.61-10.74-1.2-16.22c.7-3.56,2-7.55,3.79-10,5.35-7.44,16.41-6.44,24.15-4.87a162.65,162.65,0,0,1,29.6,9.34c6.41,2.63,12.75,5.43,18.24,9.38A48.22,48.22,0,0,1,109,150.5a52.24,52.24,0,0,1,7.28,10,54.28,54.28,0,0,1,4.12,9.47,125.46,125.46,0,0,1,4.18,22.71c.72,6.49,2.6,12,.4,18.3s-1.77,12.9-2.13,19.4c0,.19,0,.39-.05.58q-.16,1-.31,1.92c-1,4.54-4,9.33-8.35,10.19-6.5,1.28-12-.57-18.17-2.55C84.49,236.88,73.25,231.84,62.31,226.78Zm-34-48.51c1.74.86,1.46,4.63,1.83,6.33.16.75,1.23,6.8.7,6.46-1.81-1.17-1.94-6.85-2.33-8.81C28.24,182.29,28,178.15,28.27,178.27ZM26,159.64c-3.46-10.17-2.27-23.51,5.28-31.56,1.4-1.5,3.33-2,5.16-2.59a10.15,10.15,0,0,0-4.31,4.27,7.05,7.05,0,0,0-1.33,1.29A28.17,28.17,0,0,0,27.05,139C24.87,145.62,26.62,152.8,26,159.64Z"/><path class="cls-1" d="M151.07,74.94c.62,14.54,1.24,29,2.66,43.52,0,.4-.65.51-.71.1a214,214,0,0,1-2.86-43.62A.45.45,0,0,1,151.07,74.94Z"/><path class="cls-1" d="M157.57,74.48c.74,12.94,1.39,25.43,3.9,38.21a.43.43,0,0,1-.82.23c-3.56-12.17-5.67-25.76-4.27-38.43A.59.59,0,0,1,157.57,74.48Z"/><path class="cls-1" d="M172.58,82.12a3.7,3.7,0,0,1,.12-.57,1.9,1.9,0,0,1,.15.34l0,.09c.68,2.11,1,9.11-.11,10.21C172.68,89.1,171.93,85.24,172.58,82.12Z"/><path class="cls-1" d="M253,142.2a29.86,29.86,0,0,1-8.11-1.74c-.25-.1-.12-.5.13-.49a29.47,29.47,0,0,1,8,1.71C253.37,141.76,253.34,142.23,253,142.2Z"/><path class="cls-1" d="M482.62,204.55a41.24,41.24,0,0,1,1.72-7.85c1.08,4.39,1.37,9.94-1.69,13.35C482,209.25,482.44,205.75,482.62,204.55Z"/><path class="cls-1" d="M486.45,319.59c.71,2.93.71,3.17.17,10.77C485.93,324.11,485.92,323.28,486.45,319.59Z"/><path class="cls-1" d="M481,226.89c-.06-5.65-1.53-12.32,1.81-16.93,2,1.31-1,3.48-.83,5.68.11,1.51.92,2.89.9,4.43s-.8,3-1,4.58c-.55,3.44-.06,7.24,0,10.71,0,1.6,1,11.78-.05,12.41-.32.19-.63-9-.64-9.59Q481,232.54,481,226.89Z"/><path class="cls-1" d="M482.33,324.94c-1.07-1.77-.28-6.13-.3-8.14C482.92,318,483,323.56,482.33,324.94Z"/><path class="cls-1" d="M236.81,231.8c.66,16.64,2.49,34,13.68,47,10.76,12.51,28.6,21,44.2,25.59a482,482,0,0,0,47.78,11.11c8.4,1.55,16.79,2.91,25.19,4.48,8.23,1.53,16.77,1.79,24.29-2.3,15-8.14,17.1-26.73,16.42-41.88-.17-3.78-.91-7.43-1-11.24a98.88,98.88,0,0,0-.73-13.58c-.6-3.71,0-7.41-.49-11-.5-3.86-2.56-8.08-4.53-11.39-8.36-14.06-23.9-19.67-38.73-24.1-8.9-2.66-18.24-4.37-27.26-6.65-9.29-2.35-18.6-4.3-28.07-5.74-16.46-2.49-33.66-5.44-50.41-4.8-3.33,1-6.74,1.94-10.1,2.89-1.55,1-3.26,1.83-4.5,3.3-2.61,3.11-3.27,7.6-3.89,11.47A132.67,132.67,0,0,0,236.81,231.8Zm3.41-19c1.16.61.21,9.74-.79,11.11-.22-.21-.25-.3-.21-.31C238.07,221.34,239.85,212.56,240.22,212.76Zm10.5-21.31c-.24.59-.3.65-.29.55-1.3,2.08-4.76,3.42-6,5.6-1.16,2-1.39,3.72-3.07,5.4-.67-2.45,1.05-6.27,2.63-8.12C245.08,193.57,248.85,190.44,250.72,191.45ZM372.9,212.59c-9.67-3.31-19.08-6.71-29.11-8.73s-20.1-3.7-30.14-5.7c-10.29-2.05-20.57-4.13-31-5.37-5.25-.62-10.52-1.17-15.78-1.69-.48,0-9.66-.25-8.61-1.81,1.28-1.88,14.57.37,16.9.62,5.6.59,11.18,1.21,16.77,2,11.56,1.61,23.35,3.16,34.59,6.19,10.81,2.92,21.88,5.12,32.79,7.87a128.43,128.43,0,0,1,16.14,5c1.14.45,15,6.53,13.77,7.72C388.24,219.63,374.91,213,372.9,212.59ZM242.7,245.42a132,132,0,0,1-1.51-16.33,68.46,68.46,0,0,1,1.11-17.29c0-.9.05-1.79.1-2.66.19-3.27,1.93-6.79,3.35-9.71,3.26-6.71,11.09-7.13,17.49-7,7.8.18,16,1.65,23.73,2.76,7.49,1.07,14.79,2.15,22.17,3.79,16.32,3.64,33.06,5.28,49.07,10.16,14.63,4.46,29.83,9.47,40.69,20.7,5.23,5.41,4.89,12.84,5.57,20,.83,8.59,1.68,17.16,1.84,25.79.15,8.26,1.22,17.68-2.75,25.27-3.76,7.21-8.88,14.19-16.7,17.1s-15.81.55-23.69-.88c-8.64-1.58-17.36-2.6-26-4.32-16.47-3.3-33.18-6.6-48.91-12.66s-34.47-15.58-42.46-31.32c-2-4-2.75-8.83-3.31-13.27a36.91,36.91,0,0,1-.49-6.59A25.52,25.52,0,0,1,242.7,245.42Z"/><path class="cls-1" d="M485.24,211.71c1.73.89,1.6,2.35.78,3.69a4.28,4.28,0,0,1-.62.86C484.59,215.12,485.13,213,485.24,211.71Z"/><path class="cls-1" d="M48.56,54.09Z"/><path class="cls-1" d="M416.64,356.92h0Z"/><path class="cls-1" d="M125.26,218.38l.12-.57a.2.2,0,0,0-.13,0C125.24,218,125.26,218.18,125.26,218.38Z"/><path class="cls-1" d="M495.44,180.44c.6-.4,43.71-27.39,60.42-39.28s57.5-41.18,68.63-47,3.07-5.8,3.07-5.8L603.39,103.5S592.11,114,591.51,114.38s-42.3,29.2-42.9,29.41-33.23,17.93-35.25,19.13-16.52,11.28-17.52,11.48-6.85,2.82-6.85,2.82Z"/><path class="cls-1" d="M556.87,287.39s6.45-7,8.86-13.9,19.74-47.33,29.61-64,18.13-30.61,27.19-39.28,21.35-22.56,27-24.77.6,2.82,0,3-16.72,13.09-17.93,14.7-22,28.4-22,28.4l-17.12,27.79s-13.7,29.81-14.3,30.21-11.08,27.19-11.08,27.19L561.9,284Z"/><path class="cls-1" d="M570.6,270.59c-9.54,14.69-22.17,26.75-36.15,37.19-7.47,5.58-15.27,10.74-23.21,15.63-4.3,2.65-10,5.82-13.39.32-.82-1.33,1.27-2.54,2.09-1.22,4.44,7.16,36-18.82,40.12-22.15a135.87,135.87,0,0,0,28.45-31C569.35,268.07,571.45,269.29,570.6,270.59Z"/><path class="cls-1" d="M505.91,323.24s-2.62,1.81-4-2-2.22-27.19-2.82-43.91-2-87.21-2-87.21-1.21-6.85,2.22-9.87,34.24-23.56,35.65-25.18-10.27,1.61-10.88,2.22-30.61,21.35-30.61,21.35l1.21,3.42,1.21,42.7,1.81,75.13,1,30,11.48-6.24Z"/><path class="cls-1" d="M505.7,170.38c-5.17,51.42,3.06,102.84,2.08,154.31,0,2.33-3.67,2.34-3.63,0,1-51.47-7.26-102.89-2.08-154.31C502.31,168.08,505.93,168.05,505.7,170.38Z"/><path class="cls-1" d="M509.47,164.34l5.37,157.08c.08,2.33-3.55,2.33-3.63,0l-5.37-157.08C505.76,162,509.39,162,509.47,164.34Z"/><path class="cls-1" d="M518.14,159.89c-3.06,53.2,4,106.4.6,159.59-.1,1.54-2.52,1.56-2.42,0,3.36-53.19-3.66-106.39-.6-159.59C515.81,158.34,518.23,158.33,518.14,159.89Z"/><path class="cls-1" d="M524.57,281.14q.34,16.52.69,33a1.21,1.21,0,0,1-2.42,0l-.69-33A1.21,1.21,0,0,1,524.57,281.14Z"/><path class="cls-1" d="M522.59,162.71l1.76,66.82a1.29,1.29,0,0,1-2.57.06L520,162.77A1.29,1.29,0,0,1,522.59,162.71Z"/><path class="cls-1" d="M524,275.1a1.21,1.21,0,0,1-2.42,0A1.21,1.21,0,0,1,524,275.1Z"/><path class="cls-1" d="M526.38,157.12q5.21,76.18,4.36,152.58c0,1.55-2.43,1.61-2.42,0q.85-76.35-4.36-152.58C523.86,155.61,526.28,155.57,526.38,157.12Z"/><path class="cls-1" d="M534.44,147.81Q534,227,536.32,306.13a1.21,1.21,0,0,1-2.42,0Q531.62,227,532,147.81A1.21,1.21,0,0,1,534.44,147.81Z"/><path class="cls-1" d="M524.62,238.85q.17,13.7.34,27.39a1.21,1.21,0,0,1-2.42,0q-.17-13.7-.34-27.39A1.21,1.21,0,0,1,524.62,238.85Z"/><path class="cls-1" d="M540.09,260.2q.08,20.36,1.23,40.69c.09,1.55-2.33,1.55-2.42,0q-1.15-20.33-1.23-40.69A1.21,1.21,0,0,1,540.09,260.2Z"/><path class="cls-1" d="M546.73,224.76q.94,36.24,1.14,72.5a1.21,1.21,0,0,1-2.42,0q-.2-36.25-1.14-72.5A1.21,1.21,0,0,1,546.73,224.76Z"/><path class="cls-1" d="M539.61,151.44q.41,39.69,2.31,79.35c.07,1.55-2.34,1.55-2.42,0q-1.89-39.65-2.31-79.35A1.21,1.21,0,0,1,539.61,151.44Z"/><path class="cls-1" d="M551.13,190.93q3,50.09,3.53,100.28a1.21,1.21,0,0,1-2.42,0q-.52-50.18-3.53-100.28C548.62,189.38,551,189.38,551.13,190.93Z"/><path class="cls-1" d="M550.22,182.86a1.21,1.21,0,0,1-2.42,0A1.21,1.21,0,0,1,550.22,182.86Z"/><path class="cls-1" d="M548.12,139.36A332.92,332.92,0,0,1,549.88,174a1.21,1.21,0,0,1-2.42,0,333,333,0,0,0-1.76-34.63C545.54,137.82,548,137.83,548.12,139.36Z"/><path class="cls-1" d="M544.59,143.78l1.75,64.85a1.21,1.21,0,0,1-2.42,0l-1.75-64.85A1.21,1.21,0,0,1,544.59,143.78Z"/><path class="cls-1" d="M554.89,141.36,558,215.08c.06,1.55-2.35,1.55-2.42,0l-3.08-73.72C552.41,139.8,554.83,139.81,554.89,141.36Z"/><path class="cls-1" d="M565,244.9q1,15.29,1,30.6a1.21,1.21,0,0,1-2.42,0q0-15.32-1-30.6C562.47,243.35,564.88,243.36,565,244.9Z"/><path class="cls-1" d="M571.05,162.32q.23,49.16,2.44,98.27c.07,1.55-2.35,1.55-2.42,0q-2.21-49.11-2.44-98.27A1.21,1.21,0,0,1,571.05,162.32Z"/><path class="cls-1" d="M571.08,145.53l-.16,5.25c0,1.55-2.45,1.26-2.4-.29l.16-5.25C568.73,143.69,571.13,144,571.08,145.53Z"/><path class="cls-1" d="M563.81,135.73q.37,19.94.74,39.88a1.21,1.21,0,0,1-2.42,0q-.37-19.94-.74-39.88A1.21,1.21,0,0,1,563.81,135.73Z"/><path class="cls-1" d="M586.39,198.17q.26,16.52.53,33a1.21,1.21,0,0,1-2.42,0q-.26-16.51-.53-33A1.21,1.21,0,0,1,586.39,198.17Z"/><path class="cls-1" d="M595.36,147.14q2,19.49,2.46,39.07a1.21,1.21,0,0,1-2.42,0q-.51-19.58-2.46-39.07C592.79,145.59,595.21,145.6,595.36,147.14Z"/><path class="cls-1" d="M604.24,120,608,153.43c.17,1.54-2.25,1.53-2.42,0L601.82,120C601.65,118.47,604.07,118.48,604.24,120Z"/><path class="cls-1" d="M610.54,101.09q.91,14.33,2.73,28.57c.2,1.54-2.22,1.52-2.42,0q-1.81-14.24-2.73-28.57C608,99.54,610.44,99.54,610.54,101.09Z"/><path class="cls-1" d="M628.63,137.35,631,165.52c.13,1.55-2.29,1.54-2.42,0l-2.37-28.17C626.09,135.8,628.5,135.81,628.63,137.35Z"/><path class="cls-1" d="M637,112.47q1.78,11.58,2.81,23.24c.14,1.55-2.28,1.54-2.42,0q-1-11.35-2.72-22.6C634.46,111.59,636.79,110.94,637,112.47Z"/><path class="cls-1" d="M488.72,313.78q-.19,8.86-.38,17.72a1.21,1.21,0,0,1-2.42,0l.38-17.72A1.21,1.21,0,0,1,488.72,313.78Z"/><path class="cls-1" d="M484.56,315.39v9.67a1.21,1.21,0,0,1-2.42,0v-9.67A1.21,1.21,0,0,1,484.56,315.39Z"/><path class="cls-1" d="M485.54,178c.85,11.67-1.38,23.1-2,34.72-.58,11.36-.62,22.77-.91,34.14a1.21,1.21,0,0,1-2.42,0c.29-11.37.33-22.78.91-34.14.59-11.61,2.83-23.05,2-34.72C483,176.49,485.42,176.5,485.54,178Z"/><path class="cls-1" d="M487.78,221.53a1.21,1.21,0,0,1-2.42,0A1.21,1.21,0,0,1,487.78,221.53Z"/><path class="cls-1" d="M487.38,208.24v9.67a1.21,1.21,0,0,1-2.42,0v-9.67A1.21,1.21,0,0,1,487.38,208.24Z"/><path class="cls-1" d="M489.28,272.29q.47,12.89.95,25.77c.06,1.56-2.36,1.55-2.42,0q-.48-12.89-.95-25.77C486.81,270.73,489.22,270.74,489.28,272.29Z"/><path class="cls-1" d="M489.4,258.19v.4a1.21,1.21,0,0,1-2.42,0v-.4A1.21,1.21,0,0,1,489.4,258.19Z"/><path class="cls-2" d="M28.33,134.49c3.75-10,13.14-12.55,22.92-11.33,10.85,1.35,21.12,4.8,31.09,9.23,9.11,4,20.57,8.69,27.32,16.24a9.87,9.87,0,0,1,1.63,2.48,3.34,3.34,0,0,1,.87.87,18.65,18.65,0,0,1,1.62,2.79c3.53,2.4,5,6.37,6.52,10.59A96.3,96.3,0,0,1,126,188.49a112.53,112.53,0,0,1-3.27,40.71,4.27,4.27,0,0,1,.05,1.69,15.57,15.57,0,0,1-2.74,6.9,4.28,4.28,0,0,1-1.14,1.12,3.9,3.9,0,0,1-2.64,2.65,7.62,7.62,0,0,1-2.11.18,15.16,15.16,0,0,1-2.76,1.07c-6.29,1.7-12.92-1.62-18.56-4-1.8-.77-3.59-1.6-5.35-2.46-3.78-.07-7.65-2.12-11.17-3.4a171.17,171.17,0,0,1-16.15-6.67c-6.7-3.27-19.24-8.05-20.55-16.55C29.4,198.34,28.4,178.61,27.28,164.46,26.53,155,24.93,143.58,28.33,134.49Z"/><path class="cls-3" d="M241.72,260.63c1.55,5.53,4.45,12.26,9.89,14.88,6.86,8.84,16.72,15.54,26.92,20.29,19.55,9.09,42,12.56,63.06,16.63,3.76.9,7.54,1.75,11.34,2.51,12.69,2.55,29.76,7.55,40.54-2.13l.13-.13c.24-.22.47-.43.7-.66a1.65,1.65,0,0,0,.18-.24,4.39,4.39,0,0,0,4.39-2.92c.19-.45.35-.9.53-1.35h0v-.08c.49-1.21.95-2.42,1.37-3.63,4.18-4.66,6-11.62,6.11-18.51.26-11.49-.06-23.18-2.08-34.54a28,28,0,0,0-1.15-10.54,16.3,16.3,0,0,0-4.47-11.37c-.06-.07-.13-.11-.19-.18a28.69,28.69,0,0,0-5.69-5.21,20.42,20.42,0,0,0-7.73-4.89,88.06,88.06,0,0,0-19.79-8.38,70.63,70.63,0,0,0-17.9-5.3c-7.36-3.3-15.65-4.59-23.5-6.13-9.23-1.81-18.5-3.34-27.83-4.51-5-.63-10-1.15-15.05-1.62l-2.11-.33a1.32,1.32,0,0,0-.51-.31c-7.6-2.31-16-2.13-23.79-1.16-2.39.3-5.84.48-7.65,2.1a2.4,2.4,0,0,0-.27.18c-6,4.73-7.09,11.72-7,19,0,7.79.5,15.59.86,23.38v0C240.1,243.84,239.42,252.4,241.72,260.63Zm3-9,0,.17,0,0C244.76,251.73,244.75,251.67,244.75,251.61Z"/></g></g></svg>