<svg xmlns="http://www.w3.org/2000/svg" viewBox="0 0 1313.36 1558.67"><defs><style>.cls-1,.cls-2{fill:none;}.cls-1,.cls-2,.cls-3{stroke:#1a171b;stroke-linecap:round;stroke-linejoin:round;}.cls-1,.cls-3{stroke-width:5.44px;}.cls-2{stroke-width:10.88px;}.cls-3{fill:#1a171b;}</style></defs><title>Asset 2</title><g id="Layer_2" data-name="Layer 2"><g id="Vrstva_8" data-name="Vrstva 8"><g id="Vrstva_12" data-name="Vrstva 12"><path class="cls-1" d="M216.11,755.36c-92.42-110.08-148.72-339.24-9.59-536.56C344.86,22.61,500.64,8.57,640.39,3.2c170.86-6.56,402.25,53.1,505.38,262.55C1252,481.47,1213,589.29,1182,646.5"/><path class="cls-1" d="M236.06,743.41c-79.82-107.63-136.18-318,10.67-509.65C381,58.52,538.9,21.07,678.55,28.68c139.83,7.61,399.16,85.41,460.76,283.53,54.43,175.09,41.85,266.95,14.58,329.64"/><path class="cls-1" d="M294.3,736.46c-37.16-115.6-80-222.82,5.61-324.3C403.78,289,630.46,206.17,765.55,242.34c87.32,23.38,278,70.49,333.25,255.94,19.59,65.77-15.46,116.58,2.2,165.17"/><path class="cls-1" d="M1119.31,634.53c24.13-16.28,83.56,16.23,87.53,42.29s-74.76,189.6-87.24,198-70-11.78-84-32.57C1024.38,825.64,1103.85,645,1119.31,634.53Z"/><path class="cls-2" d="M1196.44,658.54l67.89-194.67s34.93-55.84,42.41-44.75-22.65,54.61-32.35,61.16-31.36,9.56-34,22.91-52.49,147.63-52.49,147.63"/><path class="cls-2" d="M1135.13,831.4S982.76,909,953.57,953.9"/><path class="cls-2" d="M1046.31,953.85s40.92-24.44,60.8-77.19"/><path class="cls-1" d="M755.76,781.8C826,866.5,849.63,943.35,858,981.1s81.81,285.66,70.54,343.69c0,0-40.28,46.12-70.34,27.29-28.55-17.89-42.64-43.39-40.73-69.33,7.33-99.74-105.82-391.49-126.85-463,20.56-56.23,65.18-37.92,65.18-37.92s4.56-14.17,17.73-23.05,34.82,6.76,34.82,6.76,13.41-7,25-4.78,39.44,45,39.44,45c56.82-38.34,67.05,8.21,67.05,8.21s68.12,33.71,115,170.48,8.77,159.47,9.45,199.35-30.06,53.05-50.64,66.94c4.84,26.23-2.88,44.3-2.88,44.3l-34.59,13.76c3.3-116.18-25.45-179.37-42.74-251.38C903.61,933.13,854.51,819,808.3,765.51"/><path class="cls-1" d="M928.5,1324.79c35.89,32.26,47.67-16,47.67-16"/><path class="cls-1" d="M872.75,805.73c57.61,85.38,142.43,305.27,140.89,445"/><path class="cls-1" d="M939.81,813.93c89.78,176.41,128.27,300.71,124.48,369.83"/><path class="cls-1" d="M939.52,938.42s23.33-15.74,35.84,2.79,8.9,28.28-.8,34.83,1.7,4.37-20.42.08"/><path class="cls-1" d="M690.59,819.72c-50-74.15-89.21-32.29-89.21-32.29s-11.81-9.06-27.69-8.88-24.79,25.36-24.79,25.36-25.61-.21-33.87,8.24,7.45,42.36,7.45,42.36c-68.55.78-67.41,44.46-67.41,44.46s-37.44,98.46,1.76,237.63,95.8,138.55,117.92,171.74,51.88,10.86,76.7,10.58c10.93,24.33,18.86,33.11,18.86,33.11l29.13-3.54C664.83,1261.43,597.58,939,548.89,803.91"/><path class="cls-1" d="M644.74,812.11"/><path class="cls-1" d="M599,778.82c28.45,166.06,138.75,387.28,149.42,555.55,0,0,51.93,17.31,69.9-35.66"/><path class="cls-1" d="M748.4,1334.37c-32.71,38.21-32,17.42-49,14.12"/><path class="cls-1" d="M522.16,867.76C570,1000,637.41,1248.51,651.44,1318.91"/><path class="cls-1" d="M455.06,899s87,332.71,103.06,392.42"/><path class="cls-1" d="M568.39,1011.41s-15.44-10.07-33.46,2.09,1.62,41.26,14.39,43.74,30-9.14,30-9.14"/><path class="cls-3" d="M1009.65,887.82C1031,873.41,1053,820.26,1053,820.26c16.08-.09,14,8.34,14,8.34s-33.66,64.13-51.32,69.12"/><path class="cls-1" d="M284.71,730.27c-26.18-12.74-80.46,27.78-80.73,54.14S304.59,961.67,318.12,968.25s67.63-21.48,78.6-44C405.49,906.18,301.48,738.43,284.71,730.27Z"/><path class="cls-2" d="M204,784.42,68.75,580.76s-59.2-57.08-63.1-44.28,47.91,60.71,59.11,64.12,37.44,6.83,43.84,18.83S210.26,767,210.26,767"/><path class="cls-3" d="M440.86,969.34l-77.34-63.41s-8.19.82-9.24,6.24S440,979.3,440,979.3"/><path class="cls-2" d="M562.49,1036.91c-6.23-9.24-122-58.21-165.3-66.63S356.67,966,329.51,946.7c-2.72-1.94-12.47-18.48-12.47-18.48"/><path class="cls-2" d="M330.38,968.37s41.85,71.29,111.48,92.48"/><path class="cls-1" d="M618.14,862S639,849.45,653,852.16"/><path class="cls-1" d="M631.46,908.29s23.24,5.23,42.24,2.5"/><path class="cls-1" d="M684.41,1068.6s31.23-6.5,36.5-8.14"/><path class="cls-1" d="M745.48,1303.81s22.4,4.63,41.34-8.15"/><path class="cls-1" d="M607,816.16s13.62-8,20.58-6.68"/><path class="cls-1" d="M652.57,974.11S687.2,961.18,700,963.66"/><path class="cls-1" d="M671.07,1029s23.8-6.53,40.1-9.38"/><path class="cls-1" d="M702.66,1124.66s29.79-4.75,37.87-10.21"/><path class="cls-1" d="M720.12,1183.44s14.68-.25,33.48-10.25"/><path class="cls-1" d="M732,1229.83s38.38-4.41,51.27-21.17"/><path class="cls-1" d="M740.39,1270.56s24.58,1.19,43.06-11.28"/><path class="cls-1" d="M783.7,818.38s-40.15,1.62-51.34,21.9"/><path class="cls-1" d="M810.86,861.35c-46.92,14.77-59.64,34.78-59.64,34.78"/><path class="cls-1" d="M841.65,926.82s-44,11.25-57.84,20.6"/><path class="cls-1" d="M862.54,999.4s-31.91,2.47-52.27,10.17"/><path class="cls-1" d="M877.64,1055.92s-50.08,5.18-68.15,7.29"/><path class="cls-1" d="M889.45,1101s-35.79,11.75-56,12.64"/><path class="cls-1" d="M904,1159.39s-27.57,9.95-48.46,5.89"/><path class="cls-1" d="M918,1223.09c-33,.92-68.29-7.54-68.29-7.54"/><path class="cls-1" d="M926.22,1269.91s-46,3.58-73.43-8"/><path class="cls-1" d="M929.32,1299s-30.51,11.17-48.3,7.72"/><path class="cls-1" d="M1036.19,1228.88l34,100.15-40.87,16.15a191.42,191.42,0,0,1-18.56-50.17"/><path class="cls-3" d="M1178.25,1555.95q8-4.9,16.09-9.65c-24.44-36.7-47.21-69.78-58.64-83.31-30-35.54-69.5-103-79.31-128.51l-13.29,5.25c5.53,41.13,64.72,111.82,78.75,132.61Z"/></g></g></g></svg>