<svg xmlns="http://www.w3.org/2000/svg" viewBox="0 0 336.34 337.92"><title>Asset 1</title><g id="Layer_2" data-name="Layer 2"><g id="Layer_1-2" data-name="Layer 1"><g id="PqqpkB"><path d="M154.34,337.92c-9-1.63-18.12-2.67-26.91-5C68.54,317.31,28.82,280.5,7.57,223.55A15.63,15.63,0,0,1,7.18,221c8.67,0,17.08-.12,25.48.15,1,0,2.25,2,3,3.36,3.56,6.58,6.91,13.27,10.5,19.83.62,1.14,2,2.58,3.12,2.61,8.29.22,16.59.12,25.27.12l-6.24-26.1c8.73,0,16.81-.14,24.87.17,1,0,2.46,2.27,2.92,3.74,1.89,6,3.58,12.12,5.13,18.25.72,2.85,2,3.93,5.13,3.92q61-.17,122,0c3.11,0,4.42-1.07,5.15-3.92,1.56-6.12,3.48-12.15,5-18.29.7-2.9,1.93-4.07,5.06-4,7.3.23,14.61.07,22.82.07L260.19,247c8.64,0,16.93.1,25.22-.12,1.09,0,2.51-1.46,3.13-2.6,3.66-6.71,7-13.58,10.74-20.27.73-1.32,2.42-2.94,3.72-3,8-.28,16-.14,25-.14-1.65,4.52-2.87,8.57-4.58,12.41q-37.6,84.45-128.34,102.27c-4.88.95-9.82,1.55-14.74,2.32Zm65.45-64.7H114.94a94.33,94.33,0,0,0,23.12,27.7c16.1,12.92,35.53,14.44,52.49,4.1C203.07,297.37,212,286.39,219.79,273.22Zm44.4,1.15-.77-1.44c-3.48,0-7-.09-10.45,0-1.22,0-3.07.24-3.53,1-3.22,5.45-6.14,11.07-9.16,16.63l1.06.94Zm-193-1.43-.63,1.53,22.93,17.07.88-1.07c-2.78-5.2-5.48-10.45-8.41-15.56a4.35,4.35,0,0,0-3-1.88C79,272.8,75.06,272.94,71.15,272.94Z"/><path d="M336.34,145.92c-6.73,15-13.67,29.93-20.06,45.08-2.08,4.92-5,6.25-10,6s-9.32.43-11.54-5.87c-3-8.58-7.13-16.78-11.13-25.94-4.21,9-8.69,17.22-11.84,25.88-2.84,7.81-8.78,5.32-14,5.85-4.85.49-6.08-2.86-7.52-6.4-5.62-13.87-11.37-27.68-17.07-41.51-2.53-6.14-1.74-7.46,4.94-7.36,14.59.21,11.22-2.16,16.2,11.28,2.51,6.77,4.9,13.59,7.71,21.41,4.28-9.76,8.48-18.41,11.86-27.37,1.82-4.84,4.87-5.62,9.24-5.38s8.77-.91,10.89,5.17c3.1,8.88,7.19,17.42,11.38,27.32,3.63-9.37,7.1-17.52,9.92-25.89,1.71-5.06,4.42-7.41,9.79-6.6,3.72.57,7.48.88,11.23,1.31Z"/><path d="M260.18,90.89l6.13,25.61H239.76L232.35,90.9h-4.87c-40,0-80,.05-119.94-.09-3.75,0-5.74.81-6.6,4.71-1.29,5.83-3.23,11.52-4.68,17.33-.68,2.72-1.58,4.29-4.91,4.17-7.44-.28-14.9-.09-23.06-.09l6.26-26.12c-8.78,0-17.19-.08-25.6.11-.95,0-2.17,1.4-2.74,2.44-3.57,6.57-7.15,13.15-10.37,19.89-1.23,2.56-2.42,3.85-5.48,3.75-7.61-.24-15.23-.08-23-.08C22.22,63.37,78.51,3.26,160.72.13c85.55-3.26,148.82,56,166.73,116.77-8.58,0-17,.12-25.36-.15-1,0-2.29-2-3-3.31-3.46-6.44-6.59-13.07-10.28-19.38a7.43,7.43,0,0,0-5.3-3C275.89,90.7,268.24,90.89,260.18,90.89ZM219.49,64.73c-5-10-14.08-20.94-23.07-28-17.32-13.59-36.87-14.36-55-2.12-10.26,6.91-18,16.18-24.43,26.6-.64,1-1.09,2.17-1.75,3.51ZM94.31,47.42l-.85-1.14-23,17.23.73,1.4c3.79,0,7.59.22,11.35-.12a5.59,5.59,0,0,0,3.68-2.49C89.08,57.45,91.64,52.4,94.31,47.42Zm147-1.13-1,1.06c2.79,5.23,5.51,10.51,8.45,15.65a4.38,4.38,0,0,0,3.09,1.83c3.9.22,7.82.09,11.73.09l.56-1.41Z"/><path d="M30.1,174.3c4.3-9.77,8.64-18.37,11.87-27.37,2.25-6.27,6.78-5,11.3-5.34,4.3-.28,7.11.79,8.81,5.29,3.31,8.8,7.23,17.37,11.36,27.13,3.85-9.85,7.46-18.51,10.59-27.35,1.34-3.8,3.39-5.36,7.32-5.06,3,.23,6-.05,9,.12,3.16.18,4.68,1.75,3.26,5-6.89,15.69-13.73,31.4-20.87,47-.7,1.52-3.22,2.94-5,3.11-11.78,1.07-11.8,1-16.61-10q-2.32-5.25-4.6-10.52c-1.46-3.35-2.91-6.71-4.71-10.87-1,1.7-1.68,2.82-2.23,4-3.54,7.71-7.1,15.42-10.51,23.18-1.29,2.93-3.12,4.37-6.47,4.32-14.12-.19-10.9,1.23-15.82-10.34-5.34-12.55-10.45-25.2-15.57-37.85-2.37-5.85-1.48-7.21,4.84-7.11,14.63.23,11.38-2.3,16.46,11.64C24.93,159.94,27.32,166.59,30.1,174.3Z"/><path d="M189.4,174c3.86-9.9,7.45-18.59,10.6-27.44,1.35-3.79,3.43-5.33,7.36-5,3,.24,6-.05,9,.12,3.15.19,4.66,1.71,3.23,5-6.88,15.69-13.68,31.41-20.79,47-.69,1.52-3.23,2.94-5,3.1-11.73,1.06-11.77,1-16.61-9.88-3.1-7-6.11-13.95-9.48-21.67-4.2,9-8.68,17.22-11.83,25.89-2.73,7.52-8.4,5.31-13.56,5.86s-6.47-2.66-8-6.46c-5.57-13.89-11.36-27.69-17-41.54-2.52-6.12-1.73-7.39,5-7.3,14.35.18,11.22-2.15,16.17,11.35,2.29,6.24,4.49,12.52,6.74,18.77.17.46.4.91,1,2.25,1.19-2.61,2.14-4.6,3-6.62,3.12-7.16,6.29-14.31,9.29-21.52,1.24-3,3-4.65,6.41-4.28a22.25,22.25,0,0,0,2.5,0c8.41,0,8.42,0,11.64,7.63Z"/></g></g></g></svg>