<?xml version="1.0" encoding="utf-8"?>
<!-- Generator: Adobe Illustrator 21.0.2, SVG Export Plug-In . SVG Version: 6.00 Build 0)  -->
<svg version="1.1" id="Layer_1" xmlns="http://www.w3.org/2000/svg" xmlns:xlink="http://www.w3.org/1999/xlink" x="0px" y="0px"
	 viewBox="0 0 317 451" style="enable-background:new 0 0 317 451;" xml:space="preserve">
<title>View Podcast</title>
<g id="Layer_2">
	<g id="Layer_1-2">
		<g id="jkRc6P">
			<path d="M137,451v-69.3C43.9,366.4-0.5,285,2.3,226.3h43.6c1.3,35.7,15.1,65.5,43.2,87.9c21.5,17.2,46.4,25.6,73.8,24.5
				c56.6-2.4,106.5-45.8,109.2-112.4h43.2c4.6,46.8-32.7,138.2-134.3,155.3V451L137,451z"/>
			<path d="M226,147.5c0,27.2,0.1,54.3,0,81.5c-0.1,31.1-23.9,58.1-54.8,63.2c-38.2,6.3-70.3-17-77.6-50.4
				c-0.9-3.9-1.4-7.8-1.5-11.8c-0.1-55.2-0.1-110.3,0-165.5c0-31.4,26.9-59.7,58.2-62.7c19.9-2,37.6,2.5,52.8,15.3
				c14.4,12.1,22.4,28,22.8,46.9C226.4,91.8,226,119.6,226,147.5z"/>
		</g>
	</g>
</g>
</svg>
