<svg xmlns="http://www.w3.org/2000/svg" viewBox="0 0 522.99 191.46"><g id="Layer_2" data-name="Layer 2"><g id="Your_Design" data-name="Your Design"><path class="cls-1" d="M170.52,52.91h23.41V106c0,28.35-16.94,39.77-42.44,39.77S109,134.37,109,106V52.91h23.41V99.73c0,15.23,3,23.6,19,23.6s19-8.37,19-23.6Z"/><path class="cls-1" d="M268.15,143.31l-19.79-28.93-19.79,28.93H203.45l32.16-47.38-29.12-43H231.8l16.56,24.36,16.56-24.36h25.31l-29.31,43,32.36,47.38Z"/><path class="cls-1" d="M337.81,144.27a37.51,37.51,0,0,1-10.09,1.52c-17.32,0-26.84-9.52-26.84-26.65V2.48H324.3V113.82c0,6.09,1.71,9.89,9.89,9.89a27.61,27.61,0,0,0,3.62-.19Z"/><path class="cls-1" d="M365,111.07c5.24,10.07,15.81,15.49,28.92,12.23,7.94-2,15.7-7,19.18-15.15l18.59,8.52c-5.14,13.24-17.53,23.38-32.49,27.09-26.41,6.56-51.64-8.16-58-33.84C335,85,347.26,59.2,375.15,52.28c25.86-6.42,49.37,10.1,55.52,34.85a46.93,46.93,0,0,1,1.24,7.34Zm40.39-27.68C401.93,74.85,391,70.31,380.1,73a23.91,23.91,0,0,0-18.45,21.25Z"/><path class="cls-1" d="M523,52.91H500l-4.73,13.14h0l-17.74,49.2L454.86,52.91H429l37.49,92.86-6.1,16.92c-1.91,5.29-4.58,8.05-11.69,5.49a25.46,25.46,0,0,1-3.08-1.29l-6.49,18a34.64,34.64,0,0,0,8.28,4.48c12.61,4.54,22.53,1.54,28.57-8.31h0l0-.12a34.89,34.89,0,0,0,3-6.31L515.53,73.37h0Z"/><path class="cls-1" d="M60.71,51.2c-12.37,0-18.65,4.57-23.79,8.38V23.88h-.1C35.83,8.5,26.44,0,10.09,0A37.52,37.52,0,0,0,0,1.52V22.27a27.63,27.63,0,0,1,3.62-.19c8.18,0,9.89,3.8,9.89,9.89V143.31H36.92V94.59c0-17.32,9.32-20.93,18.65-20.93S74.22,77.47,74.22,95v48.34H97.63V91.17C97.63,62.81,80.5,51.2,60.71,51.2Z"/></g></g></svg>